<svg version="1.1" viewBox="0.0 0.0 576.0 576.0" fill="none" stroke="none" stroke-linecap="square" stroke-miterlimit="10" xmlns:xlink="http://www.w3.org/1999/xlink" xmlns="http://www.w3.org/2000/svg"><clipPath id="g303a071b475_0_8.0"><path d="m0 0l576.0 0l0 576.0l-576.0 0l0 -576.0z" clip-rule="nonzero"/></clipPath><g clip-path="url(#g303a071b475_0_8.0)"><path fill="#000000" d="m0 0l576.0 0l0 576.0l-576.0 0z" fill-rule="evenodd"/><path fill="#000000" fill-opacity="0.0" d="m-2.6246718E-7 0.0018619422l584.1575 0l0 576.0l-584.1575 0z" fill-rule="evenodd"/><path fill="#ffffff" d="m189.87654 447.56436l0 8.4375l-132.375 0l0 -8.4375l10.9375 0q19.140625 0 27.796875 -11.15625q5.46875 -7.296875 5.46875 -35.09375l0 -199.60938q0 -23.46875 -2.96875 -30.984375q-2.28125 -5.703125 -9.34375 -9.796875q-10.015625 -5.46875 -20.953125 -5.46875l-10.9375 0l0 -8.4375l132.375 0l0 8.4375l-11.15625 0q-18.90625 0 -27.578125 11.171875q-5.6875 7.28125 -5.6875 35.078125l0 199.60938q0 23.46875 2.953125 30.984375q2.28125 5.703125 9.578125 9.796875q9.796875 5.46875 20.734375 5.46875l11.15625 0zm342.7127 -300.54688l0 8.4375q-16.40625 2.96875 -24.84375 10.484375q-12.078125 11.15625 -21.421875 34.171875l-107.765625 262.95312l-8.4375 0l-115.750015 -266.35938q-8.890625 -20.515625 -12.53125 -25.078125q-5.703125 -7.0625 -14.015625 -11.046875q-8.3125 -3.984375 -22.453125 -5.125l0 -8.4375l126.23439 0l0 8.4375q-21.40625 2.046875 -27.796875 7.296875q-6.375 5.234375 -6.375 13.4375q0 11.390625 10.484375 35.546875l78.609375 181.15625l72.921875 -178.875q10.703125 -26.4375 10.703125 -36.6875q0 -6.609375 -6.609375 -12.640625q-6.609375 -6.046875 -22.328125 -8.546875q-1.140625 -0.234375 -3.875 -0.6875l0 -8.4375l95.25 0z" fill-rule="nonzero"/></g></svg>